<svg width="222" height="222" viewBox="0 0 222 222" fill="none" xmlns="http://www.w3.org/2000/svg">
<path d="M37.5283 22.5009L37.5242 22.5009C33.6885 22.497 30.0079 24.0151 27.2902 26.7219C24.5736 29.4276 23.0409 33.1002 23.0282 36.9341C23.0282 36.9357 23.0282 36.9373 23.0282 36.939L23.0282 148.075C23.0282 156.009 29.5202 162.502 37.5283 162.502H97.8771C99.3859 162.502 100.864 162.928 102.141 163.732L153.779 196.255V170.502C153.779 166.083 157.361 162.502 161.779 162.502H185.529C193.537 162.502 200.029 156.009 200.029 148.075V36.9269C200.029 28.9939 193.537 22.5009 185.529 22.5009L37.5283 22.5009Z" stroke="#1363C0" stroke-width="8"/>
</svg>
