<svg width="17" height="17" viewBox="0 0 17 17" fill="none" xmlns="http://www.w3.org/2000/svg">
<path d="M14.3438 1.85938H5.84375C5.63241 1.85938 5.42972 1.94333 5.28027 2.09277C5.13083 2.24222 5.04688 2.44491 5.04688 2.65625V5.04688H2.65625C2.44491 5.04688 2.24222 5.13083 2.09277 5.28027C1.94333 5.42972 1.85938 5.63241 1.85938 5.84375V14.3438C1.85938 14.5551 1.94333 14.7578 2.09277 14.9072C2.24222 15.0567 2.44491 15.1406 2.65625 15.1406H11.1562C11.3676 15.1406 11.5703 15.0567 11.7197 14.9072C11.8692 14.7578 11.9531 14.5551 11.9531 14.3438V11.9531H14.3438C14.5551 11.9531 14.7578 11.8692 14.9072 11.7197C15.0567 11.5703 15.1406 11.3676 15.1406 11.1562V2.65625C15.1406 2.44491 15.0567 2.24222 14.9072 2.09277C14.7578 1.94333 14.5551 1.85938 14.3438 1.85938ZM10.3594 13.5469H3.45312V6.64062H10.3594V13.5469ZM13.5469 10.3594H11.9531V5.84375C11.9531 5.63241 11.8692 5.42972 11.7197 5.28027C11.5703 5.13083 11.3676 5.04688 11.1562 5.04688H6.64062V3.45312H13.5469V10.3594Z" fill="#BDBDBD"/>
</svg>
