<svg width="27" height="28" viewBox="0 0 27 28" fill="none" xmlns="http://www.w3.org/2000/svg">
<path d="M13.5 2.75C10.5281 2.7879 7.68858 3.98533 5.58696 6.08696C3.48533 8.18858 2.2879 11.0281 2.25 14C2.26389 15.7313 2.67719 17.436 3.4577 18.9814C4.23822 20.5268 5.36489 21.8713 6.75 22.91V23H6.8625C8.76733 24.4597 11.1002 25.2507 13.5 25.2507C15.8998 25.2507 18.2327 24.4597 20.1375 23H20.25V22.91C21.6351 21.8713 22.7618 20.5268 23.5423 18.9814C24.3228 17.436 24.7361 15.7313 24.75 14C24.7121 11.0281 23.5147 8.18858 21.413 6.08696C19.3114 3.98533 16.4719 2.7879 13.5 2.75ZM9.07875 21.7962C9.24298 21.0441 9.65942 20.3707 10.259 19.8878C10.8585 19.4049 11.6052 19.1415 12.375 19.1412H14.625C15.3948 19.1415 16.1415 19.4049 16.741 19.8878C17.3406 20.3707 17.757 21.0441 17.9213 21.7962C16.5812 22.5847 15.0548 23.0004 13.5 23.0004C11.9452 23.0004 10.4188 22.5847 9.07875 21.7962ZM19.8113 20.345C19.3833 19.3223 18.6628 18.4489 17.74 17.8344C16.8173 17.2199 15.7336 16.8918 14.625 16.8912H12.375C11.2664 16.8918 10.1827 17.2199 9.25996 17.8344C8.33724 18.4489 7.61667 19.3223 7.18875 20.345C6.34575 19.5159 5.67439 18.5287 5.21304 17.44C4.75169 16.3513 4.5094 15.1824 4.5 14C4.52918 11.6221 5.48676 9.34985 7.1683 7.6683C8.84985 5.98676 11.1221 5.02918 13.5 5C15.8779 5.02918 18.1502 5.98676 19.8317 7.6683C21.5132 9.34985 22.4708 11.6221 22.5 14C22.4906 15.1824 22.2483 16.3513 21.787 17.44C21.3256 18.5287 20.6543 19.5159 19.8113 20.345Z" fill="#1363C0"/>
<path d="M13.5 7.25C12.9052 7.23614 12.3139 7.34307 11.7616 7.56431C11.2094 7.78556 10.7078 8.11651 10.2871 8.53717C9.86649 8.95783 9.53553 9.45944 9.31429 10.0117C9.09304 10.5639 8.98612 11.1553 8.99997 11.75C8.98612 12.3447 9.09304 12.9361 9.31429 13.4883C9.53553 14.0406 9.86649 14.5422 10.2871 14.9628C10.7078 15.3835 11.2094 15.7144 11.7616 15.9357C12.3139 16.1569 12.9052 16.2639 13.5 16.25C14.0947 16.2639 14.6861 16.1569 15.2383 15.9357C15.7905 15.7144 16.2921 15.3835 16.7128 14.9628C17.1335 14.5422 17.4644 14.0406 17.6857 13.4883C17.9069 12.9361 18.0138 12.3447 18 11.75C18.0138 11.1553 17.9069 10.5639 17.6857 10.0117C17.4644 9.45944 17.1335 8.95783 16.7128 8.53717C16.2921 8.11651 15.7905 7.78556 15.2383 7.56431C14.6861 7.34307 14.0947 7.23614 13.5 7.25ZM13.5 14C13.2007 14.0145 12.9016 13.9662 12.6221 13.8582C12.3426 13.7503 12.0887 13.585 11.8768 13.3732C11.6649 13.1613 11.4997 12.9074 11.3917 12.6279C11.2838 12.3483 11.2355 12.0493 11.25 11.75C11.2355 11.4507 11.2838 11.1517 11.3917 10.8721C11.4997 10.5926 11.6649 10.3387 11.8768 10.1268C12.0887 9.91496 12.3426 9.74973 12.6221 9.64178C12.9016 9.53382 13.2007 9.48553 13.5 9.5C13.7993 9.48553 14.0983 9.53382 14.3778 9.64178C14.6574 9.74973 14.9112 9.91496 15.1231 10.1268C15.335 10.3387 15.5002 10.5926 15.6082 10.8721C15.7161 11.1517 15.7644 11.4507 15.75 11.75C15.7644 12.0493 15.7161 12.3483 15.6082 12.6279C15.5002 12.9074 15.335 13.1613 15.1231 13.3732C14.9112 13.585 14.6574 13.7503 14.3778 13.8582C14.0983 13.9662 13.7993 14.0145 13.5 14Z" fill="#1363C0"/>
</svg>
