<svg width="24" height="24" viewBox="0 0 24 24" fill="none" xmlns="http://www.w3.org/2000/svg">
<g clip-path="url(#clip0_1354_2652)">
<path d="M19.5646 1.56924L18.504 2.6299L19.5646 1.56924C18.5794 0.583963 17.4075 -0.194922 16.1176 -0.721842C14.8322 -1.24691 13.4553 -1.51128 12.0669 -1.49963C10.6786 -1.51128 9.30171 -1.24691 8.01632 -0.721843C6.7264 -0.194922 5.55452 0.583963 4.56924 1.56924C3.58396 2.55452 2.80508 3.7264 2.27816 5.01632C1.75215 6.304 1.48778 7.6835 1.50043 9.07437C1.50212 10.8965 2.12483 12.7823 2.95586 14.514C3.79679 16.2663 4.90664 17.9744 6.00296 19.4672C8.19219 22.4482 10.4211 24.6966 10.6291 24.9042C11.0103 25.2856 11.5274 25.4999 12.0666 25.5H12.0673C12.606 25.4999 13.1227 25.2859 13.5039 24.9052C13.7058 24.7036 15.9383 22.4528 18.1309 19.4672C19.2272 17.9744 20.3371 16.2663 21.178 14.514C22.0091 12.7822 22.6318 10.8965 22.6334 9.0743C22.6461 7.68345 22.3817 6.30398 21.8557 5.01632C21.3288 3.7264 20.5499 2.55452 19.5646 1.56924Z" fill="#C30873" stroke="white" stroke-width="3"/>
<path d="M12.0671 12.2669C13.8344 12.2669 15.2671 10.8342 15.2671 9.06695C15.2671 7.29967 13.8344 5.867 12.0671 5.867C10.2999 5.867 8.86719 7.29967 8.86719 9.06695C8.86719 10.8342 10.2999 12.2669 12.0671 12.2669Z" fill="white"/>
</g>
<defs>
<clipPath id="clip0_1354_2652">
<rect width="24" height="24" fill="white"/>
</clipPath>
</defs>
</svg>
