<svg width="24" height="24" viewBox="0 0 24 24" fill="none" xmlns="http://www.w3.org/2000/svg">
<path d="M6.975 22C6.45833 22 6.01267 21.829 5.638 21.487C5.26333 21.145 5.05067 20.7247 5 20.226L3 2H21L19 20.225C18.95 20.725 18.7373 21.146 18.362 21.488C17.9867 21.83 17.5413 22.0007 17.026 22H6.975ZM5.65 8H18.35L18.75 4H5.25L5.65 8ZM12 19C12.8 19 13.475 18.725 14.025 18.175C14.575 17.625 14.85 16.95 14.85 16.15C14.85 15.4667 14.629 14.725 14.187 13.925C13.745 13.125 13.016 12.15 12 11C10.9833 12.15 10.2543 13.125 9.813 13.925C9.37167 14.725 9.15067 15.4667 9.15 16.15C9.15 16.95 9.425 17.625 9.975 18.175C10.525 18.725 11.2 19 12 19Z" fill="black"/>
</svg>
