<svg width="24" height="24" viewBox="0 0 24 24" fill="none" xmlns="http://www.w3.org/2000/svg">
<path d="M13.5 6H8.5C7.94772 6 7.5 6.44772 7.5 7V17C7.5 17.5523 7.94772 18 8.5 18H9.5C10.0523 18 10.5 17.5523 10.5 17V16C10.5 15.4477 10.9477 15 11.5 15H13.5C14.0909 15 14.6761 14.8836 15.2221 14.6575C15.768 14.4313 16.2641 14.0998 16.682 13.682C17.0998 13.2641 17.4313 12.768 17.6575 12.2221C17.8836 11.6761 18 11.0909 18 10.5C18 9.90905 17.8836 9.32389 17.6575 8.77792C17.4313 8.23196 17.0998 7.73588 16.682 7.31802C16.2641 6.90016 15.768 6.56869 15.2221 6.34254C14.6761 6.1164 14.0909 6 13.5 6ZM13.5 12H11.5C10.9477 12 10.5 11.5523 10.5 11V10C10.5 9.44772 10.9477 9 11.5 9H13.5C13.8978 9 14.2794 9.15804 14.5607 9.43934C14.842 9.72064 15 10.1022 15 10.5C15 10.8978 14.842 11.2794 14.5607 11.5607C14.2794 11.842 13.8978 12 13.5 12Z" fill="black"/>
<path d="M22.5 2.5C22.5 1.94772 22.0523 1.5 21.5 1.5H2.5C1.94772 1.5 1.5 1.94772 1.5 2.5V21.5C1.5 22.0523 1.94772 22.5 2.5 22.5H21.5C22.0523 22.5 22.5 22.0523 22.5 21.5V2.5ZM5.5 19.5C4.94772 19.5 4.5 19.0523 4.5 18.5V5.5C4.5 4.94772 4.94772 4.5 5.5 4.5H18.5C19.0523 4.5 19.5 4.94772 19.5 5.5V18.5C19.5 19.0523 19.0523 19.5 18.5 19.5H5.5Z" fill="black"/>
</svg>
