<svg width="24" height="24" viewBox="0 0 24 24" fill="none" xmlns="http://www.w3.org/2000/svg">
<g clip-path="url(#clip0_1354_2636)">
<path d="M12.0669 24L12.0666 25.5C11.5274 25.4999 11.0103 25.2856 10.6291 24.9042C10.4212 24.6966 8.1922 22.4482 6.00296 19.4672C4.90664 17.9744 3.79679 16.2663 2.95586 14.514C2.12483 12.7823 1.50212 10.8965 1.50043 9.07437C1.48778 7.6835 1.75215 6.304 2.27816 5.01632C2.80508 3.7264 3.58396 2.55452 4.56924 1.56924C5.55452 0.583963 6.7264 -0.194922 8.01632 -0.721843C9.30171 -1.24691 10.6786 -1.51128 12.0669 -1.49963C13.4553 -1.51128 14.8322 -1.24691 16.1175 -0.721843C17.4075 -0.194922 18.5794 0.583963 19.5646 1.56924C20.5499 2.55452 21.3288 3.7264 21.8557 5.01632C22.3817 6.30398 22.6461 7.68345 22.6334 9.0743C22.6318 10.8965 22.009 12.7822 21.178 14.514C20.3371 16.2663 19.2272 17.9744 18.1309 19.4672C15.9417 22.4482 13.7127 24.6966 13.5048 24.9042L12.0669 24ZM12.0669 24L12.0673 25.5C12.606 25.4999 13.1227 25.2859 13.5039 24.9052L12.0669 24Z" fill="#FD0909" stroke="white" stroke-width="3"/>
<path d="M12.0669 12.2668C13.8342 12.2668 15.2669 10.8342 15.2669 9.06689C15.2669 7.29961 13.8342 5.86694 12.0669 5.86694C10.2997 5.86694 8.86699 7.29961 8.86699 9.06689C8.86699 10.8342 10.2997 12.2668 12.0669 12.2668Z" fill="white"/>
</g>
<defs>
<clipPath id="clip0_1354_2636">
<rect width="24" height="24" fill="white"/>
</clipPath>
</defs>
</svg>
