<svg width="24" height="24" viewBox="0 0 24 24" fill="none" xmlns="http://www.w3.org/2000/svg">
<path fill-rule="evenodd" clip-rule="evenodd" d="M15.5295 16.5827C15.5252 16.5766 15.5356 16.5912 15.5295 16.5827C15.5136 16.5611 15.4974 16.5397 15.4808 16.5187C15.4271 16.4511 15.3705 16.3859 15.3112 16.3232C15.1653 16.1685 14.9507 15.9699 14.661 15.7736C14.076 15.3772 13.1981 15 12 15C10.8019 15 9.92405 15.3772 9.339 15.7736C9.04932 15.9699 8.83472 16.1685 8.68885 16.3232C8.62953 16.3859 8.57295 16.4511 8.51925 16.5187C8.4991 16.5442 8.53163 16.5018 8.51925 16.5187L8.44491 16.6191C8.34614 16.7652 8.30203 16.9415 8.32033 17.1169C8.33864 17.2924 8.41818 17.4557 8.54499 17.5783L11.4787 20.4142C11.7694 20.6953 12.2305 20.6953 12.5213 20.4142L15.455 17.5783C15.5818 17.4557 15.6614 17.2924 15.6797 17.1169C15.698 16.9415 15.6539 16.7652 15.5551 16.6191L15.5295 16.5827Z" fill="black"/>
<path fill-rule="evenodd" clip-rule="evenodd" d="M19.7384 12.6498C19.7321 12.6396 19.7105 12.6045 19.7003 12.5888C19.673 12.547 19.6447 12.5057 19.6155 12.4651C19.5428 12.3638 19.4368 12.2263 19.2939 12.065C19.008 11.7425 18.5738 11.3243 17.9618 10.9102C16.7304 10.0767 14.811 9.28125 12 9.28125C9.18905 9.28125 7.26961 10.0767 6.03816 10.9102C5.4262 11.3243 4.992 11.7425 4.70611 12.065C4.56319 12.2263 4.45721 12.3638 4.3845 12.4651C4.3553 12.5057 4.32701 12.547 4.29966 12.5888C4.28953 12.6045 4.2813 12.6175 4.27496 12.6277L4.2616 12.6498C4.17573 12.7951 4.14141 12.9652 4.16419 13.1325C4.18697 13.2997 4.26552 13.4544 4.38713 13.5715L6.04228 15.1653C6.11483 15.2351 6.20071 15.2897 6.29479 15.3256C6.38886 15.3616 6.48922 15.3782 6.58987 15.3745C6.69052 15.3709 6.78939 15.3469 6.8806 15.3042C6.97181 15.2615 7.05348 15.2009 7.12074 15.1259L7.12988 15.1161C7.13958 15.1058 7.15636 15.0884 7.18022 15.0647C7.25324 14.9928 7.32877 14.9234 7.40667 14.8568C7.61302 14.6794 7.92666 14.4374 8.34206 14.1939C9.17147 13.7079 10.4012 13.2188 12 13.2188C13.5988 13.2188 14.8285 13.7079 15.6579 14.1939C16.0733 14.4374 16.387 14.6794 16.5933 14.8568C16.6712 14.9234 16.7468 14.9928 16.8198 15.0647C16.84 15.0848 16.8598 15.1051 16.8793 15.1259L16.8784 15.1249M16.8784 15.1249L16.8793 15.1259C16.9466 15.2008 17.0286 15.2617 17.1198 15.3044C17.211 15.347 17.3098 15.3709 17.4104 15.3745C17.511 15.3782 17.6113 15.3615 17.7053 15.3256C17.7994 15.2896 17.8852 15.2351 17.9577 15.1653L19.6129 13.5715C19.7345 13.4544 19.813 13.2997 19.8358 13.1325C19.8586 12.9652 19.8243 12.7951 19.7384 12.6498" fill="black"/>
<path d="M23.8113 8.49675C23.8274 8.51827 23.8666 8.57311 23.8666 8.57311C23.9678 8.71927 24.0138 8.89661 23.9964 9.07352C23.979 9.25043 23.8993 9.4154 23.7715 9.53902L22.0517 11.2031C21.9779 11.2745 21.8901 11.33 21.794 11.3661C21.6978 11.4023 21.5952 11.4183 21.4926 11.4131C21.39 11.408 21.2896 11.3818 21.1975 11.3363C21.1054 11.2907 21.0237 11.2267 20.9574 11.1482L20.9533 11.1435C20.949 11.1385 20.9414 11.1299 20.9307 11.1178C20.8969 11.0801 20.8626 11.0429 20.8277 11.0063C20.7335 10.9071 20.5889 10.7611 20.3951 10.5839C20.0072 10.2291 19.4252 9.75122 18.6608 9.2723C17.1328 8.31488 14.8866 7.35938 12 7.35938C9.11344 7.35938 6.86724 8.31488 5.33916 9.2723C4.57477 9.75122 3.99281 10.2291 3.60492 10.5839C3.41119 10.7611 3.26649 10.9071 3.17232 11.0063C3.13744 11.0429 3.1031 11.0801 3.06933 11.1178C3.05855 11.1299 3.05102 11.1385 3.04674 11.1435L3.04453 11.146L3.04313 11.1476C2.97681 11.226 2.89451 11.2907 2.80244 11.3363C2.71037 11.3818 2.60993 11.408 2.50733 11.4131C2.40473 11.4183 2.30218 11.4023 2.20602 11.3661C2.10985 11.33 2.02214 11.2745 1.94831 11.2031L0.228471 9.53902C0.100712 9.41541 0.0210123 9.25044 0.00358398 9.07353C-0.0138443 8.89662 0.0321324 8.71927 0.133315 8.57311L0.13444 8.57156L0.139549 8.56425L0.150799 8.54845C0.160018 8.53555 0.172659 8.51831 0.188721 8.49675C0.220877 8.45363 0.266862 8.39367 0.326955 8.31928C0.447096 8.1705 0.623909 7.96373 0.859784 7.71844C1.33121 7.22813 2.04033 6.58214 3.00586 5.93845C4.94236 4.64747 7.8975 3.375 12 3.375C16.1025 3.375 19.0576 4.64747 20.9941 5.93845C21.9597 6.58214 22.6688 7.22813 23.1402 7.71844C23.3761 7.96373 23.5529 8.1705 23.673 8.31928C23.7203 8.37755 23.7663 8.43672 23.8113 8.49675Z" fill="black"/>
</svg>
