<svg width="180" height="30" viewBox="0 0 180 30" fill="none" xmlns="http://www.w3.org/2000/svg">
<g clip-path="url(#clip0_1_4689)">
<path d="M87.7046 23.2718C87.7046 24.3423 87.8959 25.2181 88.1828 25.8993C88.5654 26.6778 88.948 27.2617 89.5218 27.7483C90.0957 28.2349 90.6695 28.6242 91.339 28.9161C92.0085 29.208 92.678 29.3054 93.4432 29.3054C94.1127 29.3054 94.8778 29.208 95.5473 28.9161C96.2168 28.6242 96.8863 28.3322 97.4602 27.7483C98.034 27.2617 98.4166 26.6778 98.7992 25.8993C99.1818 25.1208 99.2774 24.245 99.2774 23.2718V15.5839H93.0606V18.698H95.8342V23.2718C95.8342 24.1476 95.643 24.7315 95.1647 25.1208C94.6865 25.5101 94.1127 25.7047 93.5388 25.7047C92.8693 25.7047 92.3911 25.5101 91.9129 25.1208C91.4347 24.7315 91.2434 24.0503 91.2434 23.2718V10.3289C91.2434 9.45301 91.4347 8.86912 91.9129 8.47986C92.3911 8.0906 92.965 7.89596 93.5388 7.89596C94.2083 7.89596 94.6865 8.0906 95.1647 8.47986C95.643 8.86912 95.8342 9.55033 95.8342 10.3289V11.594H99.2774V10.3289C99.2774 9.3557 99.0861 8.47986 98.7992 7.70133C98.4166 6.92281 98.034 6.33892 97.4602 5.85234C96.8863 5.36576 96.3125 4.9765 95.5473 4.78187C94.8778 4.48992 94.2083 4.39261 93.4432 4.39261C92.7737 4.39261 92.0085 4.48992 91.339 4.78187C90.6695 5.07382 90 5.36576 89.5218 5.85234C88.948 6.33892 88.4697 7.02013 88.1828 7.70133C87.8002 8.47986 87.7046 9.3557 87.7046 10.3289V23.2718Z" fill="#1C1C1C"/>
<path d="M106.546 7.89597C107.694 7.89597 108.555 8.18792 108.938 8.86912C109.129 9.25839 109.32 9.64765 109.32 10.1342C109.416 10.6208 109.416 11.1074 109.416 11.7886C109.416 12.3725 109.416 12.9564 109.32 13.443C109.225 13.9295 109.129 14.3188 108.938 14.6107C108.746 14.9027 108.459 15.1946 108.077 15.3893C107.694 15.5839 107.216 15.6812 106.642 15.6812H104.729V7.89597H106.546ZM104.729 29.0134V18.6007H106.833L110.085 29.0134H113.72L109.99 17.8221C111.137 17.2383 111.903 16.3624 112.285 15.3893C112.763 14.4161 112.955 13.151 112.955 11.6913C112.955 6.92282 110.946 4.48993 106.833 4.48993H101.286V29.0134H104.729Z" fill="#1C1C1C"/>
<path d="M114.484 23.2718C114.484 24.3423 114.676 25.2181 114.963 25.8993C115.345 26.6778 115.728 27.2617 116.302 27.7483C116.875 28.2349 117.449 28.6242 118.119 28.9161C118.788 29.208 119.458 29.3054 120.223 29.3054C120.892 29.3054 121.658 29.208 122.327 28.9161C122.997 28.6242 123.666 28.3322 124.24 27.7483C124.814 27.2617 125.196 26.6778 125.579 25.8993C125.962 25.1208 126.057 24.245 126.057 23.2718V10.3289C126.057 9.3557 125.866 8.47986 125.579 7.70133C125.196 6.92281 124.814 6.33892 124.24 5.85234C123.666 5.36576 123.092 4.9765 122.327 4.78187C121.658 4.48992 120.988 4.39261 120.223 4.39261C119.553 4.39261 118.788 4.48992 118.119 4.78187C117.449 5.07382 116.78 5.36576 116.302 5.85234C115.728 6.33892 115.25 7.02013 114.963 7.70133C114.58 8.47986 114.484 9.3557 114.484 10.3289V23.2718ZM117.928 10.3289C117.928 9.45301 118.119 8.86912 118.597 8.47986C119.075 8.0906 119.649 7.89596 120.223 7.89596C120.892 7.89596 121.371 8.0906 121.849 8.47986C122.327 8.86912 122.518 9.55033 122.518 10.3289V23.2718C122.518 24.1476 122.327 24.7315 121.849 25.1208C121.371 25.5101 120.797 25.7047 120.223 25.7047C119.553 25.7047 119.075 25.5101 118.597 25.1208C118.119 24.7315 117.928 24.0503 117.928 23.2718V10.3289Z" fill="#1C1C1C"/>
<path d="M135.717 4.58725V23.1745C135.717 24.0503 135.526 24.7315 135.144 25.1208C134.761 25.5101 134.187 25.7047 133.613 25.7047C133.039 25.7047 132.466 25.5101 132.083 25.1208C131.7 24.7315 131.509 24.0503 131.509 23.1745V4.58725H128.066V23.5638C128.066 24.3423 128.257 25.1208 128.544 25.802C128.831 26.4832 129.214 27.0671 129.787 27.651C130.266 28.1376 130.935 28.6242 131.605 28.9161C132.274 29.2081 132.944 29.4027 133.709 29.4027C134.474 29.4027 135.239 29.2081 135.909 28.9161C136.578 28.6242 137.152 28.2349 137.726 27.651C138.204 27.1644 138.682 26.4832 138.969 25.802C139.256 25.1208 139.352 24.3423 139.352 23.5638V4.58725H135.717Z" fill="#1C1C1C"/>
<path d="M144.708 29.0134V14.3188H144.803L150.064 29.0134H153.316V4.58725H149.873V19.3792H149.777L144.612 4.58725H141.265V29.1107H144.708V29.0134Z" fill="#1C1C1C"/>
<path d="M160.202 29.0134C162.211 29.0134 163.836 28.4295 164.889 27.3591C165.941 26.2886 166.515 24.5369 166.515 22.2987V10.9128C166.515 8.86913 166.036 7.31208 164.984 6.24161C163.932 5.17114 162.498 4.58725 160.489 4.58725H155.42V29.1107H160.202V29.0134ZM160.489 7.89597C161.541 7.89597 162.211 8.18792 162.593 8.6745C162.976 9.16108 163.167 9.9396 163.167 10.9128V22.6879C163.167 23.7584 162.976 24.5369 162.593 25.0235C162.211 25.5101 161.541 25.802 160.489 25.802H158.863V7.89597H160.489Z" fill="#1C1C1C"/>
<path d="M180 9.84227C180 8.38254 179.522 7.11744 178.47 6.04697C177.991 5.56039 177.322 5.07382 176.652 4.78187C175.887 4.48992 175.026 4.39261 174.166 4.39261C173.114 4.39261 172.253 4.58724 171.583 4.87919C170.818 5.26845 170.244 5.75502 169.766 6.33892C169.288 6.92281 168.905 7.60402 168.618 8.47986C168.331 9.25838 168.236 10.1342 168.236 11.1074C168.236 12.6644 168.523 13.9295 169.001 14.9027C169.479 15.8758 170.531 16.7517 171.966 17.3356L174.453 18.406C174.835 18.6007 175.218 18.7953 175.505 18.8926C175.792 19.0872 175.983 19.2819 176.174 19.4765C176.27 19.7684 176.365 20.0604 176.461 20.4497C176.461 20.8389 176.557 21.4228 176.557 22.0067C176.557 22.5906 176.557 23.0772 176.461 23.4664C176.461 23.953 176.365 24.3423 176.174 24.6342C175.983 24.9262 175.696 25.2181 175.409 25.4127C175.122 25.6074 174.644 25.7047 174.07 25.7047C173.209 25.7047 172.54 25.4127 172.157 24.9262C171.775 24.4396 171.583 23.8557 171.583 23.1745V22.104H168.14V23.3691C168.14 24.1476 168.331 24.9262 168.618 25.6074C168.905 26.2886 169.288 26.8725 169.862 27.4564C170.34 27.9429 171.009 28.4295 171.679 28.7215C172.444 29.0134 173.209 29.208 173.974 29.208C175.122 29.208 175.983 29.0134 176.748 28.6242C177.513 28.2349 178.087 27.7483 178.565 27.0671C179.043 26.4832 179.33 25.7047 179.522 24.8288C179.713 23.953 179.809 22.9799 179.809 22.0067C179.809 21.1309 179.809 20.3523 179.713 19.5738C179.617 18.8926 179.426 18.2114 179.235 17.7248C178.948 17.2382 178.565 16.7517 178.087 16.3624C177.609 15.9731 177.035 15.5839 176.27 15.2919L173.592 14.2215C173.114 14.0268 172.827 13.8322 172.54 13.6376C172.253 13.4429 172.061 13.2483 171.966 12.9564C171.87 12.6644 171.775 12.3725 171.679 12.0805C171.679 11.7886 171.583 11.3993 171.583 10.9127C171.583 10.5235 171.583 10.1342 171.679 9.74496C171.775 9.3557 171.87 9.06375 172.061 8.7718C172.253 8.47986 172.444 8.28523 172.731 8.0906C173.018 7.89596 173.401 7.79865 173.879 7.79865C174.74 7.79865 175.409 8.09059 175.792 8.67449C176.174 9.25838 176.365 9.93959 176.365 10.7181V11.4966H179.809V9.84227H180Z" fill="#1C1C1C"/>
<path d="M3.92136 29.1107V18.2114H5.92986C7.36451 18.2114 8.60786 17.9195 9.46865 17.4329C10.3294 16.9463 11.0946 16.1678 11.6684 15.292C12.1467 14.5134 12.4336 13.7349 12.5292 12.8591C12.6249 11.9832 12.7205 10.9128 12.7205 9.64766C12.7205 7.9933 12.6249 6.63088 12.3379 5.65773C12.051 4.68457 11.5728 3.80874 10.9033 3.12753C10.3294 2.44632 9.56429 1.86243 8.79915 1.6678C7.93836 1.37585 6.98193 1.27853 5.92986 1.27853H0V29.2081H3.92136V29.1107ZM5.92986 4.97652C6.69501 4.97652 7.26886 5.07384 7.74708 5.36578C8.12965 5.56041 8.51222 5.94967 8.70351 6.33894C8.89479 6.82551 8.99044 7.31209 9.08608 7.89598C9.08608 8.47988 9.08608 9.06377 9.08608 9.74498C9.08608 10.4262 9.08608 11.1074 8.99044 11.6913C8.99044 12.2752 8.79915 12.7618 8.60786 13.151C8.41658 13.5403 8.03401 13.9295 7.65143 14.1242C7.17322 14.3188 6.59936 14.5134 5.83422 14.5134H3.92136V4.97652H5.92986Z" fill="#1363C0"/>
<path d="M27.832 29.1107V25.1208H20.0849V1.18121H16.1636V29.1107H27.832Z" fill="#1363C0"/>
<path d="M34.7186 19.3792L36.6314 9.2584H36.7271L38.6399 19.3792H34.7186ZM32.9013 29.1107L34.0491 23.0772H39.4051L40.5528 29.1107H44.4741L38.353 1.18121H35.1011L28.98 29.1107H32.9013Z" fill="#1363C0"/>
<path d="M52.3169 29.1107V17.3356L57.6729 1.18121H53.5602L50.404 12.2752H50.3084L47.1521 1.18121H42.9438L48.2999 17.3356V29.1107H52.3169Z" fill="#1363C0"/>
<path fill-rule="evenodd" clip-rule="evenodd" d="M81.3923 17.5302H74.506L68.6718 11.594C68.1936 11.2047 67.7154 11.0101 67.1415 11.0101C66.5676 11.0101 66.0894 11.2047 65.6112 11.6913C65.2286 12.0805 64.9417 12.6644 64.9417 13.2483C64.9417 13.8322 65.133 14.4161 65.5156 14.8054L71.9237 21.2282V29.5973C71.6367 29.5973 71.3498 29.5973 71.1585 29.5973C63.3158 29.5973 56.9077 23.0772 56.9077 15.0973C56.9077 7.11745 63.3158 0.5 71.2542 0.5C78.6187 0.5 84.6442 6.1443 85.4093 13.443L81.3923 17.5302ZM81.3923 7.99329C80.4359 7.02013 79.2882 6.53356 77.9492 6.53356C76.6102 6.53356 75.4624 7.02013 74.506 7.99329C73.5496 8.96644 73.0714 10.1342 73.0714 11.4966C73.0714 12.8591 73.5496 14.0268 74.506 15C75.4624 15.9732 76.6102 16.4597 77.9492 16.4597C79.2882 16.4597 80.4359 15.9732 81.3923 15C82.3487 14.0268 82.8269 12.8591 82.8269 11.4966C82.8269 10.1342 82.3487 8.96644 81.3923 7.99329ZM83.879 21.6175V21.1309L84.2616 20.7416C84.1659 21.0336 84.0703 21.3255 83.879 21.6175Z" fill="#1363C0"/>
</g>
<defs>
<clipPath id="clip0_1_4689">
<rect width="180" height="29" fill="white" transform="translate(0 0.5)"/>
</clipPath>
</defs>
</svg>
